<svg width="91.8" height="92.6" xmlns="http://www.w3.org/2000/svg">

 <g>
  <title>background</title>
  <rect fill="none" id="canvas_background" height="402" width="582" y="-1" x="-1"/>
 </g>
 <g>
  <title>Layer 1</title>
  <path id="svg_1" fill="#ff0000" d="m45.900002,3.6c-23.500002,0 -42.500001,19 -42.500001,42.499999c0,23.5 19,42.5 42.500001,42.5c23.5,0 42.5,-19 42.5,-42.5c0,-23.399998 -19,-42.499999 -42.5,-42.499999zm-2.200001,17.5l4.299999,0c0.5,0 0.900002,0.4 0.900002,0.9l-0.600002,34.5c0,0.5 -0.399998,0.900002 -0.899998,0.900002l-3,0c-0.5,0 -0.900002,-0.400002 -0.900002,-0.900002l-0.700001,-34.5c0,-0.5 0.400002,-0.9 0.900002,-0.9zm4.899998,50.099997c-0.799999,0.800003 -1.699997,1.100006 -2.699997,1.100006c-1,0 -1.900002,-0.300003 -2.600002,-1c-0.799999,-0.700005 -1.299999,-1.800003 -1.299999,-2.900002c0,-1 0.400002,-1.900002 1.099998,-2.700005c0.700001,-0.799995 1.800003,-1.199997 2.900002,-1.199997c1.200001,0 2.200001,0.5 3,1.400002c0.5,0.599998 0.799999,1.299995 0.900002,2.099998c0,1.300003 -0.400002,2.300003 -1.300003,3.199997z"/>
 </g>
</svg>